HIERARCHY
ROOT Hips
{
  OFFSET 5.84602e-005 68.8428 3.50346
  CHANNELS 6 Xposition Yposition Zposition Zrotation Xrotation Yrotation
  JOINT Spine
  {
    OFFSET 0 8.597 -4.6522
    CHANNELS 3 Zrotation Xrotation Yrotation
    JOINT Spine1
    {
      OFFSET 0 7.8454 0.4098
      CHANNELS 3 Zrotation Xrotation Yrotation
      JOINT Spine2
      {
        OFFSET 0 9.7078 -2.1609
        CHANNELS 3 Zrotation Xrotation Yrotation
        JOINT Neck
        {
          OFFSET 0 21.8761 -0.4549
          CHANNELS 3 Zrotation Xrotation Yrotation
          JOINT Head
          {
            OFFSET 0 12.3537 3.3602
            CHANNELS 3 Zrotation Xrotation Yrotation
            End Site
            {
              OFFSET 0.0001 18.9506 0.5657
            }
          }
        }
        JOINT LeftShoulder
        {
          OFFSET 2.2086 21.1115 7.2329
          CHANNELS 3 Zrotation Xrotation Yrotation
          JOINT LeftArm
          {
            OFFSET 13.1193 3.0282 -4.8998
            CHANNELS 3 Zrotation Xrotation Yrotation
            JOINT LeftForeArm
            {
              OFFSET 27.4081 -0.0973053 -0.2375
              CHANNELS 3 Zrotation Xrotation Yrotation
              JOINT LeftHand
              {
                OFFSET 22.8641 0.0662994 -0.1369
                CHANNELS 3 Zrotation Xrotation Yrotation
                JOINT LeftHandIndex1
                {
                  OFFSET 8.8614 0.775009 2.4612
                  CHANNELS 3 Zrotation Xrotation Yrotation
                  JOINT LeftHandIndex2
                  {
                    OFFSET 3.3146 -0.808304 0.5841
                    CHANNELS 3 Zrotation Xrotation Yrotation
                    JOINT LeftHandIndex3
                    {
                      OFFSET 2.2628 -0.552002 0.3989
                      CHANNELS 3 Zrotation Xrotation Yrotation
                      End Site
                      {
                        OFFSET 1.6102 -0.4807 0.2612
                      }
                    }
                  }
                }
                JOINT LeftHandMiddle1
                {
                  OFFSET 8.9937 0.895004 0.2143
                  CHANNELS 3 Zrotation Xrotation Yrotation
                  JOINT LeftHandMiddle2
                  {
                    OFFSET 4.0984 0.0113983 -0.0242
                    CHANNELS 3 Zrotation Xrotation Yrotation
                    JOINT LeftHandMiddle3
                    {
                      OFFSET 2.2716 0.00689697 -0.0138001
                      CHANNELS 3 Zrotation Xrotation Yrotation
                      End Site
                      {
                        OFFSET 2.0404 -0.1441 0.0027
                      }
                    }
                  }
                }
                JOINT LeftHandRing1
                {
                  OFFSET 8.5234 0.597198 -2.0164
                  CHANNELS 3 Zrotation Xrotation Yrotation
                  JOINT LeftHandRing2
                  {
                    OFFSET 3.7188 -0.188293 -0.2328
                    CHANNELS 3 Zrotation Xrotation Yrotation
                    JOINT LeftHandRing3
                    {
                      OFFSET 2.1191 -0.106598 -0.1332
                      CHANNELS 3 Zrotation Xrotation Yrotation
                      End Site
                      {
                        OFFSET 1.8737 -0.2304 -0.0886
                      }
                    }
                  }
                }
                JOINT LeftHandPinky1
                {
                  OFFSET 7.9094 -0.601089 -3.4825
                  CHANNELS 3 Zrotation Xrotation Yrotation
                  JOINT LeftHandPinky2
                  {
                    OFFSET 2.2874 -0.477005 -0.6314
                    CHANNELS 3 Zrotation Xrotation Yrotation
                    JOINT LeftHandPinky3
                    {
                      OFFSET 1.6774 -0.349396 -0.4633
                      CHANNELS 3 Zrotation Xrotation Yrotation
                      End Site
                      {
                        OFFSET 1.4888 -0.4091 -0.3416
                      }
                    }
                  }
                }
                JOINT LeftHandThumb1
                {
                  OFFSET 1.833 -1.3875 1.3896
                  CHANNELS 3 Zrotation Xrotation Yrotation
                  JOINT LeftHandThumb2
                  {
                    OFFSET 3.4129 -1.121 2.5732
                    CHANNELS 3 Zrotation Xrotation Yrotation
                    JOINT LeftHandThumb3
                    {
                      OFFSET 2.2474 -0.804199 1.6192
                      CHANNELS 3 Zrotation Xrotation Yrotation
                      End Site
                      {
                        OFFSET 1.6527 -0.5689 1.1317
                      }
                    }
                  }
                }
              }
            }
          }
        }
        JOINT RightShoulder
        {
          OFFSET -2.2086 21.1115 7.2329
          CHANNELS 3 Zrotation Xrotation Yrotation
          JOINT RightArm
          {
            OFFSET -13.1216 3.0287 -4.9007
            CHANNELS 3 Zrotation Xrotation Yrotation
            JOINT RightForeArm
            {
              OFFSET -27.4081 -0.0973053 -0.2375
              CHANNELS 3 Zrotation Xrotation Yrotation
              JOINT RightHand
              {
                OFFSET -22.8641 0.0664063 -0.1369
                CHANNELS 3 Zrotation Xrotation Yrotation
                JOINT RightHandIndex1
                {
                  OFFSET -8.8614 0.774994 2.4612
                  CHANNELS 3 Zrotation Xrotation Yrotation
                  JOINT RightHandIndex2
                  {
                    OFFSET -3.3146 -0.808304 0.5841
                    CHANNELS 3 Zrotation Xrotation Yrotation
                    JOINT RightHandIndex3
                    {
                      OFFSET -2.2628 -0.552002 0.3989
                      CHANNELS 3 Zrotation Xrotation Yrotation
                      End Site
                      {
                        OFFSET -1.6102 -0.4807 0.2612
                      }
                    }
                  }
                }
                JOINT RightHandMiddle1
                {
                  OFFSET -8.9937 0.894989 0.2143
                  CHANNELS 3 Zrotation Xrotation Yrotation
                  JOINT RightHandMiddle2
                  {
                    OFFSET -4.0984 0.0113983 -0.0242
                    CHANNELS 3 Zrotation Xrotation Yrotation
                    JOINT RightHandMiddle3
                    {
                      OFFSET -2.2716 0.00691223 -0.0138001
                      CHANNELS 3 Zrotation Xrotation Yrotation
                      End Site
                      {
                        OFFSET -2.0404 -0.1441 0.0027
                      }
                    }
                  }
                }
                JOINT RightHandRing1
                {
                  OFFSET -8.5234 0.597198 -2.0164
                  CHANNELS 3 Zrotation Xrotation Yrotation
                  JOINT RightHandRing2
                  {
                    OFFSET -3.7188 -0.188309 -0.2328
                    CHANNELS 3 Zrotation Xrotation Yrotation
                    JOINT RightHandRing3
                    {
                      OFFSET -2.1191 -0.106598 -0.1332
                      CHANNELS 3 Zrotation Xrotation Yrotation
                      End Site
                      {
                        OFFSET -1.8737 -0.2304 -0.0886
                      }
                    }
                  }
                }
                JOINT RightHandPinky1
                {
                  OFFSET -7.9094 -0.601105 -3.4825
                  CHANNELS 3 Zrotation Xrotation Yrotation
                  JOINT RightHandPinky2
                  {
                    OFFSET -2.2874 -0.477005 -0.6314
                    CHANNELS 3 Zrotation Xrotation Yrotation
                    JOINT RightHandPinky3
                    {
                      OFFSET -1.6774 -0.349396 -0.4633
                      CHANNELS 3 Zrotation Xrotation Yrotation
                      End Site
                      {
                        OFFSET -1.4888 -0.4091 -0.3416
                      }
                    }
                  }
                }
                JOINT RightHandThumb1
                {
                  OFFSET -1.833 -1.38751 1.3896
                  CHANNELS 3 Zrotation Xrotation Yrotation
                  JOINT RightHandThumb2
                  {
                    OFFSET -3.41299 -1.12099 2.5732
                    CHANNELS 3 Zrotation Xrotation Yrotation
                    JOINT RightHandThumb3
                    {
                      OFFSET -2.24741 -0.804108 1.6192
                      CHANNELS 3 Zrotation Xrotation Yrotation
                      End Site
                      {
                        OFFSET -1.6527 -0.5689 1.1317
                      }
                    }
                  }
                }
              }
            }
          }
        }
      }
    }
  }
  JOINT RightUpLeg
  {
    OFFSET -9.1966 3.8861 -0.7581
    CHANNELS 3 Zrotation Xrotation Yrotation
    JOINT RightLeg
    {
      OFFSET -0.7359 -41.0265 0
      CHANNELS 3 Zrotation Xrotation Yrotation
      JOINT RightFoot
      {
        OFFSET 0 -40.2855 0
        CHANNELS 3 Zrotation Xrotation Yrotation
        JOINT RightToeBase
        {
          OFFSET 0 -5.6122 11.7359
          CHANNELS 3 Zrotation Xrotation Yrotation
          End Site
          {
            OFFSET 0 0 7.8731
          }
        }
      }
    }
  }
  JOINT LeftUpLeg
  {
    OFFSET 9.1965 3.8864 -0.7581
    CHANNELS 3 Zrotation Xrotation Yrotation
    JOINT LeftLeg
    {
      OFFSET 0.7359 -41.0268 0
      CHANNELS 3 Zrotation Xrotation Yrotation
      JOINT LeftFoot
      {
        OFFSET 0 -40.2855 0
        CHANNELS 3 Zrotation Xrotation Yrotation
        JOINT LeftToeBase
        {
          OFFSET 0 -5.6122 11.7359
          CHANNELS 3 Zrotation Xrotation Yrotation
          End Site
          {
            OFFSET 0 0 7.8731
          }
        }
      }
    }
  }
}
MOTION
Frames:	6
Frame Time:	0.0333333
2.56763 4.01472 6.29667 -122.359 -89.9975 -75.3593 -1.38986 12.1879 -9.48988 -0.670914 24.4347 -19.3553 -0.670931 24.4347 -19.3553 -0.323013 32.0502 11.4539 -3.3643 9.23214 10.8806 -23.003 -0.392287 2.2347 -15.5953 0.956185 -3.28119 -67.657 3.1891 -84.6035 -7.00033 8.10184e-007 3.37639e-006 -5.09485e-007 -4.30232e-007 -5.32639e-007 -9.54166e-015 3.18055e-015 -0 -5.09485e-007 -4.30232e-007 -5.32639e-007 -5.09485e-007 -4.30232e-007 -5.32639e-007 -0.0146207 -8.28651e-005 -3.73787e-006 -5.09482e-007 -4.30164e-007 -5.32693e-007 -5.09485e-007 -4.30232e-007 -5.32639e-007 -0.0187707 -0.00117539 6.18988e-005 -5.09487e-007 -4.30144e-007 -5.32704e-007 -5.09485e-007 -4.30232e-007 -5.32639e-007 -0.0122601 -0.00325476 0.000676734 -5.095e-007 -4.30171e-007 -5.32671e-007 -5.09485e-007 -4.30232e-007 -5.32639e-007 -9.54166e-015 3.18055e-015 -0 -5.09485e-007 -4.30232e-007 -5.32639e-007 -19.6485 -5.93961 1.54194 -28.0325 -5.54099 5.3005 48.6478 -46.0944 171.298 6.99682 1.31228e-005 -6.72905e-006 9.54166e-015 1.2921e-014 2.06736e-014 -9.49364e-007 -6.9569e-007 -2.85139e-006 -3.70029e-006 1.01619e-006 2.84453e-006 9.54166e-015 1.2921e-014 2.06736e-014 0.0149794 -9.45213e-005 -4.49645e-007 -4.65294e-006 9.53984e-007 2.31785e-006 9.54166e-015 1.2921e-014 2.06736e-014 0.0190023 -0.00119088 -6.044e-005 -4.65288e-006 9.54052e-007 2.31786e-006 9.54166e-015 1.2921e-014 2.06736e-014 0.0122542 -0.00324252 -0.000680537 -3.7012e-006 1.01673e-006 2.84458e-006 9.54166e-015 1.2921e-014 2.06736e-014 -9.49364e-007 -6.9569e-007 -2.85139e-006 -3.70029e-006 1.01619e-006 2.84453e-006 -35.7226 -12.8935 -40.1859 -169.34 63.7502 165.539 -7.71807 20.2445 -2.49797 -3.86252e-006 -4.78082e-007 2.96174e-006 11.5548 -13.5287 2.82181 -6.60243 13.7156 1.86912 8.47509 11.6131 0.810092 1.32417e-031 -1.59028e-015 4.77083e-015 
2.5675 4.01472 6.29666 -122.359 -89.9975 -75.3593 -1.38986 12.1879 -9.48988 -0.670914 24.4347 -19.3553 -0.670931 24.4347 -19.3553 -0.319803 32.144 11.449 -3.366 9.12053 10.7522 -23.003 -0.392287 2.2347 -15.5953 0.956182 -3.28117 -67.657 3.18909 -84.6035 -7.00033 4.28888e-008 -1.97189e-006 -6.36856e-007 -5.3779e-007 -6.65799e-007 2.54742e-007 2.15116e-007 2.66319e-007 -3.82114e-007 -3.22674e-007 -3.99479e-007 -6.36856e-007 -5.3779e-007 -6.65799e-007 -0.0145765 -9.06362e-005 -1.99194e-006 -3.82112e-007 -3.22623e-007 -3.9952e-007 -6.36856e-007 -5.3779e-007 -6.65799e-007 -0.018733 -0.00117118 5.96015e-005 -3.82115e-007 -3.22608e-007 -3.99528e-007 -6.36856e-007 -5.3779e-007 -6.65799e-007 -0.0122803 -0.00326242 0.000679726 -1.1356e-006 -1.10414e-007 3.13229e-007 -6.36856e-007 -5.3779e-007 -6.65799e-007 2.54742e-007 2.15116e-007 2.66319e-007 -3.82114e-007 -3.22674e-007 -3.99479e-007 -19.6485 -5.93961 1.54194 -28.0325 -5.54099 5.3005 48.6478 -46.0944 171.298 6.99682 1.66679e-006 -9.04169e-008 1.27222e-014 -9.93923e-016 1.19271e-015 -3.42707e-009 6.33183e-007 2.32483e-006 -6.36111e-015 -9.93923e-016 -1.39149e-015 1.27222e-014 -9.93923e-016 1.19271e-015 0.0149892 -8.94733e-005 2.09686e-006 6.36111e-015 1.39149e-015 -1.78906e-015 1.27222e-014 -9.93923e-016 1.19271e-015 0.0190184 -0.00119624 -5.76756e-005 6.36111e-015 1.39149e-014 2.54444e-014 1.27222e-014 -9.93923e-016 1.19271e-015 0.0122607 -0.00324615 -0.000673772 2.06902e-032 9.93923e-016 -1.19271e-015 1.27222e-014 -9.93923e-016 1.19271e-015 -3.42707e-009 6.33183e-007 2.32483e-006 -6.36111e-015 -9.93923e-016 -1.39149e-015 -35.5435 -13.0149 -40.0232 -169.341 63.7465 165.546 -7.71376 20.2442 -2.49506 -4.00617e-007 -4.53214e-007 2.98679e-006 11.5549 -13.5286 2.82182 -6.60242 13.7151 1.86908 8.47503 11.6134 0.81007 -4.94477e-006 2.396e-006 3.63278e-006 
2.56737 4.01473 6.29666 -122.359 -89.9975 -75.3593 -1.38986 12.1879 -9.48988 -0.670914 24.4347 -19.3553 -0.670931 24.4347 -19.3553 -0.316608 32.2379 11.4442 -3.36796 9.00893 10.624 -23.003 -0.392287 2.2347 -15.5953 0.956176 -3.28118 -67.657 3.18909 -84.6035 -7.00033 2.65872e-007 -1.17217e-006 -6.36856e-007 -5.3779e-007 -6.65799e-007 -7.64228e-007 -6.45348e-007 -7.98958e-007 -3.82114e-007 -3.22674e-007 -3.99479e-007 -6.36856e-007 -5.3779e-007 -6.65799e-007 -0.0145948 -8.86947e-005 -4.99582e-006 -3.82112e-007 -3.22623e-007 -3.9952e-007 -6.36856e-007 -5.3779e-007 -6.65799e-007 -0.0187789 -0.00116832 6.09449e-005 -3.82115e-007 -3.22608e-007 -3.99528e-007 -6.36856e-007 -5.3779e-007 -6.65799e-007 -0.0122657 -0.00325252 0.00067466 -3.82125e-007 -3.22628e-007 -3.99503e-007 -6.36856e-007 -5.3779e-007 -6.65799e-007 -7.64228e-007 -6.45348e-007 -7.98958e-007 -3.82114e-007 -3.22674e-007 -3.99479e-007 -19.6485 -5.93961 1.54194 -28.0325 -5.54099 5.30051 48.6478 -46.0944 171.298 6.99682 7.81827e-007 -3.25308e-006 2.48282e-032 -1.78906e-015 7.95139e-016 -9.52796e-007 -6.25102e-008 -5.26561e-007 9.52796e-007 6.25102e-008 5.26561e-007 2.48282e-032 -1.78906e-015 7.95139e-016 0.0149845 -8.91532e-005 2.09071e-006 9.51446e-007 6.2587e-008 5.26552e-007 2.48282e-032 -1.78906e-015 7.95139e-016 0.0190184 -0.00119687 -5.99994e-005 -6.36111e-015 3.97569e-016 -5.96354e-016 2.48282e-032 -1.78906e-015 7.95139e-016 0.0122332 -0.00323447 -0.00067466 -1.37935e-033 -1.98785e-016 -3.97569e-016 2.48282e-032 -1.78906e-015 7.95139e-016 -9.52796e-007 -6.25102e-008 -5.26561e-007 9.52796e-007 6.25102e-008 5.26561e-007 -35.3639 -13.1357 -39.86 -169.343 63.7429 165.554 -7.70943 20.2439 -2.49214 -5.94465e-007 -1.03071e-006 -2.05057e-007 11.555 -13.5285 2.82182 -6.60241 13.7149 1.86905 8.47496 11.6135 0.810062 -4.87845e-006 7.89184e-007 -4.85832e-006 
2.56724 4.01473 6.29666 -122.359 -89.9975 -75.3593 -1.38986 12.1879 -9.48988 -0.670914 24.4347 -19.3553 -0.670931 24.4347 -19.3553 -0.313404 32.3318 11.4393 -3.37016 8.89734 10.4957 -23.003 -0.392287 2.2347 -15.5953 0.956176 -3.28118 -67.657 3.18909 -84.6035 -7.00033 2.65872e-007 -1.17217e-006 -6.36856e-007 -5.3779e-007 -6.65799e-007 -7.64228e-007 -6.45348e-007 -7.98958e-007 -3.82114e-007 -3.22674e-007 -3.99479e-007 -6.36856e-007 -5.3779e-007 -6.65799e-007 -0.0145948 -8.86947e-005 -4.99582e-006 -3.82112e-007 -3.22623e-007 -3.9952e-007 -6.36856e-007 -5.3779e-007 -6.65799e-007 -0.0187789 -0.00116832 6.09449e-005 -3.82115e-007 -3.22608e-007 -3.99528e-007 -6.36856e-007 -5.3779e-007 -6.65799e-007 -0.0122657 -0.00325252 0.00067466 -3.82125e-007 -3.22628e-007 -3.99503e-007 -6.36856e-007 -5.3779e-007 -6.65799e-007 -7.64228e-007 -6.45348e-007 -7.98958e-007 -3.82114e-007 -3.22674e-007 -3.99479e-007 -19.6485 -5.93961 1.54194 -28.0325 -5.541 5.3005 48.6478 -46.0944 171.298 6.99682 4.87562e-006 -3.48874e-006 3.44836e-033 -1.98785e-016 9.93923e-016 2.06902e-033 1.98785e-016 -5.96354e-016 2.06902e-033 1.98785e-016 -5.96354e-016 3.44836e-033 -1.98785e-016 9.93923e-016 0.0150115 -8.70683e-005 -1.77925e-006 -3.18055e-015 0 -3.37934e-015 3.44836e-033 -1.98785e-016 9.93923e-016 0.0190156 -0.00120114 -5.78909e-005 3.18055e-015 3.97569e-016 -3.97569e-016 3.44836e-033 -1.98785e-016 9.93923e-016 0.0122551 -0.00324119 -0.000675365 -6.36111e-015 9.93923e-016 -1.59028e-015 3.44836e-033 -1.98785e-016 9.93923e-016 2.06902e-033 1.98785e-016 -5.96354e-016 2.06902e-033 1.98785e-016 -5.96354e-016 -35.1839 -13.2561 -39.6963 -169.345 63.7391 165.561 -7.70508 20.2436 -2.48922 1.84246e-006 -3.77708e-007 8.95061e-008 11.555 -13.5285 2.82182 -6.60239 13.7147 1.86899 8.47489 11.6137 0.810076 6.5599e-007 -2.9484e-007 -4.28878e-006 
2.56711 4.01473 6.29665 -122.359 -89.9975 -75.3593 -1.38986 12.1879 -9.48987 -0.670915 24.4347 -19.3553 -0.670931 24.4347 -19.3553 -0.310138 32.4256 11.4344 -3.37262 8.78575 10.3675 -23.003 -0.392287 2.2347 -15.5953 0.956183 -3.28119 -67.657 3.18909 -84.6035 -7.00033 -8.67821e-007 -2.0495e-006 -6.36856e-007 -5.3779e-007 -6.65799e-007 -6.36856e-007 -5.3779e-007 -6.65799e-007 -3.82114e-007 -3.22674e-007 -3.99479e-007 -6.36856e-007 -5.3779e-007 -6.65799e-007 -0.014623 -8.83138e-005 -1.31417e-006 -3.82112e-007 -3.22623e-007 -3.9952e-007 -6.36856e-007 -5.3779e-007 -6.65799e-007 -0.0187827 -0.00117516 6.16363e-005 -3.82115e-007 -3.22608e-007 -3.99528e-007 -6.36856e-007 -5.3779e-007 -6.65799e-007 -0.0122674 -0.00324955 0.00066962 -3.82125e-007 -3.22628e-007 -3.99503e-007 -6.36856e-007 -5.3779e-007 -6.65799e-007 -6.36856e-007 -5.3779e-007 -6.65799e-007 -3.82114e-007 -3.22674e-007 -3.99479e-007 -19.6485 -5.93961 1.54194 -28.0325 -5.54099 5.30049 48.6479 -46.0943 171.298 6.99682 1.00551e-005 -2.72037e-006 -1.27222e-014 -3.97569e-016 1.78906e-015 -1.27222e-014 -5.96354e-016 2.98177e-015 -1.59028e-014 1.98785e-016 3.97569e-016 -1.27222e-014 -3.97569e-016 1.78906e-015 0.0149874 -9.43049e-005 2.40798e-006 -3.18055e-015 -7.95139e-016 1.78906e-015 -1.27222e-014 -3.97569e-016 1.78906e-015 0.019017 -0.00119602 -5.71496e-005 6.36111e-015 5.96354e-016 7.95139e-016 -1.27222e-014 -3.97569e-016 1.78906e-015 0.0122551 -0.00324246 -0.000680014 1.27222e-014 1.31198e-014 2.00773e-014 -1.27222e-014 -3.97569e-016 1.78906e-015 -1.27222e-014 -5.96354e-016 2.98177e-015 -1.59028e-014 1.98785e-016 3.97569e-016 -35.0035 -13.3759 -39.5321 -169.347 63.7355 165.569 -7.70076 20.2432 -2.48628 1.59028e-015 3.18055e-015 -3.18055e-015 11.5551 -13.5285 2.82183 -6.60239 13.7145 1.86897 8.47483 11.6139 0.810054 3.18055e-015 0 1.63003e-014 
2.56697 4.01474 6.29665 -122.359 -89.9975 -75.3593 -1.38986 12.1879 -9.48988 -0.670914 24.4347 -19.3553 -0.670931 24.4347 -19.3553 -0.306938 32.5194 11.4296 -3.37533 8.67417 10.2393 -23.003 -0.392287 2.2347 -15.5953 0.956182 -3.28118 -67.6569 3.1891 -84.6035 -7.00033 1.21014e-008 -1.42561e-006 -6.36856e-007 -5.3779e-007 -6.65799e-007 1.27371e-007 1.07558e-007 1.3316e-007 -3.82114e-007 -3.22674e-007 -3.99479e-007 -6.36856e-007 -5.3779e-007 -6.65799e-007 -0.0146 -8.27641e-005 1.79741e-006 -3.82112e-007 -3.22623e-007 -3.9952e-007 -6.36856e-007 -5.3779e-007 -6.65799e-007 -0.0187803 -0.0011695 5.94784e-005 -3.82115e-007 -3.22608e-007 -3.99528e-007 -6.36856e-007 -5.3779e-007 -6.65799e-007 -0.0122664 -0.00325305 0.000673993 -3.82125e-007 -3.22628e-007 -3.99503e-007 -6.36856e-007 -5.3779e-007 -6.65799e-007 1.27371e-007 1.07558e-007 1.3316e-007 -3.82114e-007 -3.22674e-007 -3.99479e-007 -19.6485 -5.93961 1.54194 -28.0325 -5.54099 5.3005 48.6478 -46.0944 171.298 6.99682 -1.67964e-006 -7.1285e-006 3.18055e-015 1.98785e-016 2.78299e-015 6.36111e-015 -3.97569e-016 2.18663e-015 -6.20706e-033 5.96354e-016 5.96354e-016 3.18055e-015 1.98785e-016 2.78299e-015 0.0150103 -8.66711e-005 -6.18081e-007 6.36111e-015 -1.98785e-016 -1.98785e-016 3.18055e-015 1.98785e-016 2.78299e-015 0.0190033 -0.00119018 -5.7594e-005 1.65521e-032 -5.96354e-016 1.59028e-015 3.18055e-015 1.98785e-016 2.78299e-015 0.012254 -0.00324143 -0.000676529 3.18055e-015 1.05356e-014 1.78906e-015 3.18055e-015 1.98785e-016 2.78299e-015 6.36111e-015 -3.97569e-016 2.18663e-015 -6.20706e-033 5.96354e-016 5.96354e-016 -34.8226 -13.4953 -39.3674 -169.348 63.7318 165.576 -7.6964 20.2427 -2.48334 1.59028e-015 0 -3.18055e-015 11.5551 -13.5285 2.82185 -6.60239 13.7144 1.86895 8.47477 11.614 0.810063 1.32417e-031 1.59028e-015 -4.77083e-015 
